<svg width="128" height="128" viewBox="0 0 128 128" fill="none" xmlns="http://www.w3.org/2000/svg">
<g id="Add_User">
<path id="Subtract" fill-rule="evenodd" clip-rule="evenodd" d="M78.8571 31.75C78.8571 46.5252 66.8344 58.5 52 58.5C37.1656 58.5 25.1429 46.5252 25.1429 31.75C25.1429 16.9748 37.1656 5 52 5C66.8344 5 78.8571 16.9748 78.8571 31.75ZM67.296 65.1875H70.8C78.8187 65.1875 86.0582 68.5249 91.1939 73.8806C77.8776 77.1542 68 89.1736 68 103.5C68 106.45 68.4188 109.302 69.2001 112H15.0714C9.51116 112 5 107.507 5 101.969V93.275C5 77.7684 17.6312 65.1875 33.2 65.1875H36.704C41.383 67.3191 46.5446 68.5312 52 68.5312C57.4554 68.5312 62.6379 67.3191 67.296 65.1875Z" fill="white"/>
<g id="Plus_Sign">
<g id="Plus_Border_Circle">
<path id="Subtract_2" fill-rule="evenodd" clip-rule="evenodd" d="M98.5 128C112.031 128 123 117.031 123 103.5C123 89.969 112.031 79 98.5 79C84.969 79 74 89.969 74 103.5C74 117.031 84.969 128 98.5 128ZM98.5 122.931C109.231 122.931 117.931 114.231 117.931 103.5C117.931 92.7685 109.231 84.0689 98.5 84.0689C87.7685 84.0689 79.069 92.7685 79.069 103.5C79.069 114.231 87.7685 122.931 98.5 122.931Z" fill="white"/>
</g>
<g id="Plus_Sign_2">
<g id="Rectangle 118">
<rect x="96.2031" y="91.25" width="4.59375" height="22.9688" rx="2.29688" fill="white"/>
<rect x="96.2031" y="91.25" width="4.59375" height="22.9688" rx="2.29688" fill="white"/>
</g>
<g id="Rectangle 119">
<rect x="110.75" y="101.203" width="4.59375" height="22.9688" rx="2.29688" transform="rotate(90 110.75 101.203)" fill="white"/>
<rect x="110.75" y="101.203" width="4.59375" height="22.9688" rx="2.29688" transform="rotate(90 110.75 101.203)" fill="white"/>
</g>
</g>
</g>
</g>
</svg>
