<svg width="128" height="128" viewBox="0 0 128 128" fill="none" xmlns="http://www.w3.org/2000/svg">
<g id="Add_Employee">
<path id="Subtract" fill-rule="evenodd" clip-rule="evenodd" d="M78.3571 28.75C78.3571 41.8682 67.2297 52.5 53.5 52.5C39.7703 52.5 28.6429 41.8682 28.6429 28.75C28.6429 15.6318 39.7703 5 53.5 5C67.2297 5 78.3571 15.6318 78.3571 28.75ZM62.8214 94.0625L72.104 58.5488C79.6905 58.8945 86.4374 62.2981 90.9873 67.5055C77.3296 70.0434 67 81.8358 67 96C67 97.3571 67.0948 98.6925 67.2783 100H19.3214C14.1752 100 10 96.0107 10 91.0938V83.375C10 69.9971 21.0498 59.1797 34.896 58.5488L44.1786 94.0625L50.3929 68.8281L44.1786 58.4375H62.8214L56.6071 68.8281L62.8214 94.0625Z" fill="white"/>
<g id="Plus_Sign">
<g id="Plus_Border_Circle">
<path id="Subtract_2" fill-rule="evenodd" clip-rule="evenodd" d="M96.5 120C110.031 120 121 109.031 121 95.5C121 81.969 110.031 71 96.5 71C82.969 71 72 81.969 72 95.5C72 109.031 82.969 120 96.5 120ZM96.5 114.931C107.231 114.931 115.931 106.231 115.931 95.5C115.931 84.7685 107.231 76.0689 96.5 76.0689C85.7685 76.0689 77.069 84.7685 77.069 95.5C77.069 106.231 85.7685 114.931 96.5 114.931Z" fill="white"/>
</g>
<g id="Plus_Sign_2">
<g id="Rectangle 118">
<rect x="94.2031" y="83.25" width="4.59375" height="22.9688" rx="2.29688" fill="white"/>
<rect x="94.2031" y="83.25" width="4.59375" height="22.9688" rx="2.29688" fill="white"/>
</g>
<g id="Rectangle 119">
<rect x="108.75" y="93.2031" width="4.59375" height="22.9688" rx="2.29688" transform="rotate(90 108.75 93.2031)" fill="white"/>
<rect x="108.75" y="93.2031" width="4.59375" height="22.9688" rx="2.29688" transform="rotate(90 108.75 93.2031)" fill="white"/>
</g>
</g>
</g>
</g>
</svg>
