<svg width="128" height="128" viewBox="0 0 128 128" fill="none" xmlns="http://www.w3.org/2000/svg">
<g id="Admin_Dashboard">
<g id="dashboard">
<path id="Subtract" fill-rule="evenodd" clip-rule="evenodd" d="M7 7H112.807V72H114.807V7V5H112.807H7H5V7V96V98H7H68V96H7V7Z" fill="white"/>
<g id="Vertical_Chart">
<rect id="Rectangle 74" x="78.0714" y="40.3362" width="27.6638" height="4.7449" transform="rotate(90 78.0714 40.3362)" fill="white"/>
<rect id="Rectangle 76" x="97.051" y="47.2522" width="20.7479" height="4.7449" transform="rotate(90 97.051 47.2522)" fill="white"/>
<rect id="Rectangle 75" x="87.5612" y="26.5043" width="41.4957" height="4.7449" transform="rotate(90 87.5612 26.5043)" fill="white"/>
<rect id="Rectangle 77" x="106.541" y="15.4387" width="51.8697" height="4.74489" transform="rotate(90 106.541 15.4387)" fill="white"/>
</g>
<g id="Horizontal_Chart">
<rect id="Rectangle 71" width="52.4592" height="1.89796" transform="matrix(-1 0 0 1 66 72.3776)" fill="white"/>
<rect id="Rectangle 72" width="52.4592" height="1.89796" transform="matrix(-1 0 0 1 66 79.0205)" fill="white"/>
<rect id="Rectangle 73" width="52.4592" height="1.89796" transform="matrix(-1 0 0 1 66 85.6633)" fill="white"/>
</g>
<path id="Vector" d="M64.4506 46.5624H41.7685L56.8743 61.6866C57.4516 62.2646 58.4018 62.3115 58.9954 61.7516C62.6946 58.2623 65.2392 53.5584 65.9857 48.2708C66.1138 47.3654 65.3634 46.5624 64.4506 46.5624V46.5624ZM62.9374 40.3608C62.1498 28.928 53.0249 19.7921 41.606 19.0035C40.7342 18.9432 40.0001 19.6791 40.0001 20.5539V41.9686H61.3898C62.2635 41.9686 62.9976 41.2336 62.9374 40.3608ZM35.4119 46.5624V23.8528C35.4119 22.9388 34.6099 22.1875 33.7066 22.3158C22.3154 23.9274 13.6083 33.8912 14.0136 45.8322C14.4304 58.0957 24.9766 68.1523 37.2309 67.9983C42.0486 67.938 46.5001 66.3837 50.1602 63.7844C50.9153 63.2485 50.965 62.1354 50.3102 61.4798L35.4119 46.5624Z" fill="white"/>
</g>
<path id="admin" d="M120.286 104.997C120.526 103.675 120.526 102.325 120.286 101.003L122.665 99.6062C122.942 99.4469 123.062 99.1187 122.969 98.8094C122.352 96.7844 121.291 94.9469 119.908 93.4281C119.696 93.1937 119.355 93.1375 119.079 93.2969L116.7 94.6937C115.695 93.8219 114.543 93.1469 113.298 92.6969V89.9031C113.298 89.5844 113.077 89.3031 112.772 89.2375C110.716 88.7687 108.623 88.7875 106.669 89.2375C106.365 89.3031 106.143 89.5844 106.143 89.9031V92.6969C104.899 93.1469 103.746 93.8219 102.741 94.6937L100.363 93.2969C100.095 93.1375 99.7449 93.1937 99.5328 93.4281C98.1499 94.9469 97.0896 96.7844 96.4719 98.8094C96.3797 99.1187 96.5087 99.4469 96.7761 99.6062L99.1548 101.003C98.9151 102.325 98.9151 103.675 99.1548 104.997L96.7761 106.394C96.4995 106.553 96.3797 106.881 96.4719 107.191C97.0896 109.216 98.1499 111.044 99.5328 112.572C99.7449 112.806 100.086 112.863 100.363 112.703L102.741 111.306C103.746 112.178 104.899 112.853 106.143 113.303V116.097C106.143 116.416 106.365 116.697 106.669 116.762C108.725 117.231 110.818 117.212 112.772 116.762C113.077 116.697 113.298 116.416 113.298 116.097V113.303C114.543 112.853 115.695 112.178 116.7 111.306L119.079 112.703C119.346 112.863 119.696 112.806 119.908 112.572C121.291 111.053 122.352 109.216 122.969 107.191C123.062 106.881 122.932 106.553 122.665 106.394L120.286 104.997V104.997ZM109.73 107.547C107.259 107.547 105.258 105.503 105.258 103C105.258 100.497 107.268 98.4531 109.73 98.4531C112.191 98.4531 114.201 100.497 114.201 103C114.201 105.503 112.201 107.547 109.73 107.547ZM84.6522 94C91.1705 94 96.4534 88.6281 96.4534 82C96.4534 75.3719 91.1705 70 84.6522 70C78.1338 70 72.8509 75.3719 72.8509 82C72.8509 88.6281 78.1338 94 84.6522 94ZM103.202 115.234C102.99 115.122 102.778 114.991 102.575 114.869L101.847 115.3C101.294 115.619 100.667 115.797 100.04 115.797C99.0349 115.797 98.0669 115.366 97.3754 114.616C95.6882 112.759 94.3974 110.5 93.6691 108.091C93.162 106.431 93.8442 104.678 95.3194 103.806L96.0478 103.375C96.0385 103.131 96.0385 102.888 96.0478 102.644L95.3194 102.213C93.8442 101.35 93.162 99.5875 93.6691 97.9281C93.752 97.6562 93.8719 97.3844 93.9641 97.1125C93.6137 97.0844 93.2726 97 92.9131 97H91.3734C89.3266 97.9562 87.0493 98.5 84.6522 98.5C82.2551 98.5 79.987 97.9562 77.931 97H76.3913C69.5503 97 64 102.644 64 109.6V113.5C64 115.984 65.9822 118 68.4255 118H100.879C101.81 118 102.677 117.7 103.387 117.203C103.276 116.847 103.202 116.481 103.202 116.097V115.234Z" fill="white"/>
</g>
</svg>
