<svg width="128" height="128" viewBox="0 0 128 128" fill="none" xmlns="http://www.w3.org/2000/svg">
<g id="Attendance_Setting">
<g id="Subtract">
<mask id="path-1-inside-1_513_16" fill="white">
<path fill-rule="evenodd" clip-rule="evenodd" d="M15 12C9.47715 12 5 16.4772 5 22V90C5 95.5229 9.47715 100 15 100H90V92H100.8C100.931 91.3538 101 90.6849 101 90V22C101 16.4772 96.5228 12 91 12H15Z"/>
</mask>
<path d="M90 100V103H93V100H90ZM90 92V89H87V92H90ZM100.8 92V95H103.252L103.74 92.5968L100.8 92ZM8 22C8 18.134 11.134 15 15 15V9C7.8203 9 2 14.8203 2 22H8ZM8 90V22H2V90H8ZM15 97C11.134 97 8 93.866 8 90H2C2 97.1797 7.8203 103 15 103V97ZM90 97H15V103H90V97ZM93 100V92H87V100H93ZM90 95H100.8V89H90V95ZM98 90C98 90.4834 97.9515 90.9523 97.8599 91.4032L103.74 92.5968C103.911 91.7553 104 90.8865 104 90H98ZM98 22V90H104V22H98ZM91 15C94.866 15 98 18.134 98 22H104C104 14.8203 98.1797 9 91 9V15ZM15 15H91V9H15V15Z" fill="white" mask="url(#path-1-inside-1_513_16)"/>
</g>
<rect id="Rectangle 130" x="8" y="28" width="90" height="2" fill="white"/>
<rect id="Rectangle 131" x="22" y="5" width="5" height="19" rx="2.5" fill="white"/>
<rect id="Rectangle 132" x="74" y="5" width="4" height="19" rx="2" fill="white"/>
<rect id="Rectangle 140" x="14" y="48" width="10" height="10" rx="2" fill="white"/>
<rect id="Rectangle 147" x="14" y="62" width="10" height="10" rx="2" fill="white"/>
<rect id="Rectangle 154" x="14" y="76" width="10" height="10" rx="2" fill="white"/>
<rect id="Rectangle 134" x="26" y="34" width="9" height="10" rx="2" fill="white"/>
<rect id="Rectangle 141" x="26" y="48" width="9" height="10" rx="2" fill="white"/>
<rect id="Rectangle 148" x="26" y="62" width="9" height="10" rx="2" fill="white"/>
<rect id="Rectangle 155" x="26" y="76" width="9" height="10" rx="2" fill="white"/>
<rect id="Rectangle 135" x="37" y="34" width="9" height="10" rx="2" fill="white"/>
<rect id="Rectangle 142" x="37" y="48" width="9" height="10" rx="2" fill="white"/>
<rect id="Rectangle 149" x="37" y="62" width="9" height="10" rx="2" fill="white"/>
<rect id="Rectangle 156" x="37" y="76" width="9" height="10" rx="2" fill="white"/>
<rect id="Rectangle 136" x="48" y="34" width="10" height="10" rx="2" fill="white"/>
<rect id="Rectangle 143" x="48" y="48" width="10" height="10" rx="2" fill="white"/>
<rect id="Rectangle 150" x="48" y="62" width="10" height="10" rx="2" fill="white"/>
<rect id="Rectangle 157" x="48" y="76" width="10" height="10" rx="2" fill="white"/>
<rect id="Rectangle 137" x="60" y="34" width="9" height="10" rx="2" fill="white"/>
<rect id="Rectangle 144" x="60" y="48" width="9" height="10" rx="2" fill="white"/>
<rect id="Rectangle 151" x="60" y="62" width="9" height="10" rx="2" fill="white"/>
<rect id="Rectangle 158" x="60" y="76" width="9" height="10" rx="2" fill="white"/>
<rect id="Rectangle 138" x="71" y="34" width="9" height="10" rx="2" fill="white"/>
<rect id="Rectangle 145" x="71" y="48" width="9" height="10" rx="2" fill="white"/>
<rect id="Rectangle 152" x="71" y="62" width="9" height="10" rx="2" fill="white"/>
<rect id="Rectangle 159" x="71" y="76" width="9" height="10" rx="2" fill="white"/>
<rect id="Rectangle 139" x="82" y="34" width="10" height="10" rx="2" fill="white"/>
<rect id="Rectangle 146" x="82" y="48" width="10" height="10" rx="2" fill="white"/>
<rect id="Rectangle 153" x="82" y="62" width="10" height="10" rx="2" fill="white"/>
<rect id="Rectangle 133" x="14" y="34" width="10" height="10" rx="2" fill="white"/>
<rect id="Rectangle 160" x="82" y="76" width="10" height="10" rx="2" fill="white"/>
<path id="Vector" d="M100.509 96.1009C98.9209 96.1009 97.4341 96.7103 96.3084 97.8239C95.188 98.9375 94.5667 100.408 94.5667 101.979C94.5667 103.55 95.188 105.02 96.3084 106.134C97.4341 107.242 98.9209 107.857 100.509 107.857C102.096 107.857 103.583 107.242 104.709 106.134C105.829 105.02 106.451 103.55 106.451 101.979C106.451 100.408 105.829 98.9375 104.709 97.8239C104.159 97.2758 103.505 96.8412 102.784 96.5454C102.062 96.2497 101.289 96.0986 100.509 96.1009V96.1009ZM122.402 108.472L118.929 105.535C119.094 104.537 119.179 103.518 119.179 102.504C119.179 101.49 119.094 100.466 118.929 99.4733L122.402 96.5369C122.664 96.3148 122.852 96.0189 122.94 95.6886C123.028 95.3583 123.013 95.0092 122.896 94.6879L122.848 94.5513C121.892 91.9075 120.46 89.4568 118.621 87.318L118.525 87.2077C118.302 86.948 118.005 86.7612 117.672 86.6722C117.339 86.5831 116.987 86.5958 116.662 86.7087L112.35 88.2268C110.757 86.9346 108.983 85.9155 107.061 85.2063L106.228 80.7466C106.165 80.4106 106 80.1016 105.755 79.8604C105.51 79.6193 105.197 79.4575 104.858 79.3966L104.714 79.3703C101.953 78.8766 99.0431 78.8766 96.2819 79.3703L96.1385 79.3966C95.7986 79.4575 95.4856 79.6193 95.2409 79.8604C94.9962 80.1016 94.8314 80.4106 94.7685 80.7466L93.9295 85.2274C92.0255 85.9422 90.2518 86.9588 88.6779 88.2373L84.3344 86.7087C84.0092 86.5949 83.6568 86.5817 83.3238 86.6709C82.9909 86.76 82.6933 86.9472 82.4706 87.2077L82.375 87.318C80.5393 89.4591 79.1076 91.9091 78.1482 94.5513L78.1004 94.6879C77.8615 95.3445 78.0579 96.0799 78.5942 96.5369L82.1095 99.5048C81.9449 100.492 81.8652 101.501 81.8652 102.499C81.8652 103.508 81.9449 104.516 82.1095 105.493L78.6049 108.461C78.3425 108.683 78.1548 108.979 78.0666 109.309C77.9783 109.64 77.9939 109.989 78.111 110.31L78.1588 110.447C79.1199 113.089 80.5377 115.532 82.3856 117.68L82.4812 117.79C82.7045 118.05 83.0021 118.237 83.3348 118.326C83.6675 118.415 84.0197 118.402 84.345 118.289L88.6886 116.761C90.2709 118.048 92.0339 119.067 93.9402 119.771L94.7791 124.251C94.842 124.587 95.0068 124.896 95.2515 125.138C95.4962 125.379 95.8093 125.54 96.1491 125.601L96.2925 125.628C99.0809 126.124 101.936 126.124 104.725 125.628L104.868 125.601C105.208 125.54 105.521 125.379 105.766 125.138C106.01 124.896 106.175 124.587 106.238 124.251L107.072 119.792C108.994 119.077 110.768 118.063 112.361 116.771L116.672 118.289C116.997 118.403 117.35 118.416 117.683 118.327C118.016 118.238 118.313 118.051 118.536 117.79L118.632 117.68C120.48 115.521 121.897 113.089 122.858 110.447L122.906 110.31C123.135 109.659 122.938 108.929 122.402 108.472ZM100.509 111.214C95.3526 111.214 91.1737 107.08 91.1737 101.979C91.1737 96.8784 95.3526 92.7443 100.509 92.7443C105.665 92.7443 109.844 96.8784 109.844 101.979C109.844 107.08 105.665 111.214 100.509 111.214Z" fill="white"/>
</g>
</svg>
