<svg width="128" height="128" viewBox="0 0 128 128" fill="none" xmlns="http://www.w3.org/2000/svg">
<g id="Attendance_Log_Entry">
<g id="Calendar_Back">
<g id="Subtract">
<mask id="path-1-inside-1_523_105" fill="white">
<path d="M5 21.2709C5 15.748 9.47715 11.2709 15 11.2709H81C86.5228 11.2709 91 15.748 91 21.2709V80.1042C91 85.627 86.5228 90.1042 81 90.1042H15C9.47715 90.1042 5 85.6271 5 80.1042V21.2709Z"/>
</mask>
<path d="M15 14.2709H81V8.27087H15V14.2709ZM88 21.2709V80.1042H94V21.2709H88ZM81 87.1042H15V93.1042H81V87.1042ZM8 80.1042V21.2709H2V80.1042H8ZM15 87.1042C11.134 87.1042 8 83.9702 8 80.1042H2C2 87.2839 7.8203 93.1042 15 93.1042V87.1042ZM88 80.1042C88 83.9702 84.866 87.1042 81 87.1042V93.1042C88.1797 93.1042 94 87.2839 94 80.1042H88ZM81 14.2709C84.866 14.2709 88 17.4049 88 21.2709H94C94 14.0912 88.1797 8.27087 81 8.27087V14.2709ZM15 8.27087C7.82029 8.27087 2 14.0912 2 21.2709H8C8 17.4049 11.134 14.2709 15 14.2709V8.27087Z" fill="white" mask="url(#path-1-inside-1_523_105)"/>
</g>
<rect id="Rectangle 130" x="7.6875" y="25.6042" width="80.625" height="1.79167" fill="white"/>
</g>
<g id="Calendar_Wrapper">
<rect id="Rectangle 131" x="20.2292" y="5" width="4.47917" height="17.0208" rx="2.23958" fill="white"/>
<rect id="Rectangle 132" x="66.8125" y="5" width="3.58333" height="17.0208" rx="1.79167" fill="white"/>
</g>
<g id="Days">
<rect id="Rectangle 140" x="13.0625" y="43.5208" width="8.95833" height="8.95833" rx="2" fill="white"/>
<rect id="Rectangle 147" x="13.0625" y="56.0625" width="8.95833" height="8.95833" rx="2" fill="white"/>
<rect id="Rectangle 154" x="13.0625" y="68.6041" width="8.95833" height="8.95833" rx="2" fill="white"/>
<rect id="Rectangle 134" x="23.8125" y="30.9791" width="8.0625" height="8.95833" rx="2" fill="white"/>
<rect id="Rectangle 141" x="23.8125" y="43.5208" width="8.0625" height="8.95833" rx="2" fill="white"/>
<rect id="Rectangle 148" x="23.8125" y="56.0625" width="8.0625" height="8.95833" rx="2" fill="white"/>
<rect id="Rectangle 155" x="23.8125" y="68.6041" width="8.0625" height="8.95833" rx="2" fill="white"/>
<rect id="Rectangle 135" x="33.6667" y="30.9791" width="8.0625" height="8.95833" rx="2" fill="white"/>
<rect id="Rectangle 142" x="33.6667" y="43.5208" width="8.0625" height="8.95833" rx="2" fill="white"/>
<rect id="Rectangle 149" x="33.6667" y="56.0625" width="8.0625" height="8.95833" rx="2" fill="white"/>
<rect id="Rectangle 156" x="33.6667" y="68.6041" width="8.0625" height="8.95833" rx="2" fill="white"/>
<rect id="Rectangle 136" x="43.5208" y="30.9791" width="8.95833" height="8.95833" rx="2" fill="white"/>
<rect id="Rectangle 143" x="43.5208" y="43.5208" width="8.95833" height="8.95833" rx="2" fill="white"/>
<rect id="Rectangle 150" x="43.5208" y="56.0625" width="8.95833" height="8.95833" rx="2" fill="white"/>
<rect id="Rectangle 157" x="43.5208" y="68.6041" width="8.95833" height="8.95833" rx="2" fill="white"/>
<rect id="Rectangle 137" x="54.2708" y="30.9791" width="8.0625" height="8.95833" rx="2" fill="white"/>
<rect id="Rectangle 144" x="54.2708" y="43.5208" width="8.0625" height="8.95833" rx="2" fill="white"/>
<rect id="Rectangle 151" x="54.2708" y="56.0625" width="8.0625" height="8.95833" rx="2" fill="white"/>
<rect id="Rectangle 158" x="54.2708" y="68.6041" width="8.0625" height="8.95833" rx="2" fill="white"/>
<rect id="Rectangle 138" x="64.125" y="30.9791" width="8.0625" height="8.95833" rx="2" fill="white"/>
<rect id="Rectangle 145" x="64.125" y="43.5208" width="8.0625" height="8.95833" rx="2" fill="white"/>
<rect id="Rectangle 152" x="64.125" y="56.0625" width="8.0625" height="8.95833" rx="2" fill="white"/>
<rect id="Rectangle 159" x="64.125" y="68.6041" width="8.0625" height="8.95833" rx="2" fill="white"/>
<rect id="Rectangle 139" x="73.9792" y="30.9791" width="8.95833" height="8.95833" rx="2" fill="white"/>
<rect id="Rectangle 146" x="73.9792" y="43.5208" width="8.95833" height="8.95833" rx="2" fill="white"/>
<rect id="Rectangle 153" x="73.9792" y="56.0625" width="8.95833" height="8.95833" rx="2" fill="white"/>
<rect id="Rectangle 133" x="13.0625" y="30.9791" width="8.95833" height="8.95833" rx="2" fill="white"/>
<rect id="Rectangle 160" x="73.9792" y="68.6041" width="8.95833" height="8.95833" rx="2" fill="white"/>
</g>
<g id="Edit_Pencil">
<g id="Pencil" clip-path="url(#clip0_523_105)">
<path id="Vector" d="M102.716 77.3146L81.2528 98.7867L84.3742 101.908L84.6964 101.586L84.6964 105.83C84.6964 106.641 85.3594 107.304 86.1697 107.304L90.4144 107.304L90.0921 107.625C89.6501 108.061 89.1161 108.38 88.5268 108.554L81.3265 110.67L83.4442 103.473C83.6192 102.967 83.9414 102.35 84.3742 101.908L81.2528 98.7867C80.2952 99.7443 79.5862 100.932 79.2087 102.23L75.9492 113.31C75.719 114.085 75.9308 114.924 76.5846 115.496C77.0726 116.067 77.9105 116.281 78.6931 116.053L89.7698 112.794C91.0681 112.411 92.2559 111.709 93.2135 110.75L114.682 89.2844L102.716 77.3146ZM117.591 70.7772C115.29 68.4753 111.555 68.4753 109.253 70.7772L104.797 75.2336L116.765 87.2035L121.221 82.747C123.523 80.4451 123.523 76.7069 121.221 74.405L117.591 70.7772V70.7772Z" fill="white"/>
</g>
<path id="Rectangle 168" d="M84.5983 91.5892L82.0447 95.5178L71.8304 95.5178L71.8304 119.089L102.473 119.089L102.473 102.065L106.304 99.4464L106.304 123.018L68 123.018L68 91.5892L84.5983 91.5892Z" fill="white"/>
</g>
</g>
<defs>
<clipPath id="clip0_523_105">
<rect width="47.1429" height="47.1428" fill="white" transform="matrix(-4.37114e-08 -1 -1 4.37114e-08 123 116.143)"/>
</clipPath>
</defs>
</svg>
