<svg width="128" height="128" viewBox="0 0 128 128" fill="none" xmlns="http://www.w3.org/2000/svg">
<path d="M59.034 70.7863L52.4879 76.9879C51.7988 78.0215 50.6313 78.5 49.4062 78.5H41.75V86.1562C41.75 88.702 39.702 90.75 37.1562 90.75H29.5V98.4062C29.5 100.952 27.452 103 24.9062 103H9.59375C7.05762 103 5 100.952 5 98.4062V83.0938C5 81.8687 5.48407 80.7012 6.34539 79.8398L37.2137 48.966C36.1801 45.7312 35.625 42.2668 35.625 38.6875C35.625 20.0828 50.7078 5 69.3125 5C87.9172 5 103 20.0828 103 38.6875C103 57.2922 87.9172 72.375 69.3125 72.375C65.7332 72.375 62.2687 71.8199 59.034 70.7863ZM76.9688 38.6875C81.1988 38.6875 84.625 35.2613 84.625 31.0312C84.625 26.8012 81.1988 23.375 76.9688 23.375C72.7387 23.375 69.3125 26.8012 69.3125 31.0312C69.3125 35.2613 72.7387 38.6875 76.9688 38.6875Z" fill="white"/>
<g clip-path="url(#clip0_609_75)">
<path d="M100.387 69.3102L76.3536 93.3536L79.8487 96.8488L80.2096 96.4879L80.2096 101.241C80.2096 102.148 80.9519 102.891 81.8592 102.891L86.6122 102.891L86.2513 103.25C85.7565 103.738 85.1585 104.096 84.4986 104.291L76.436 106.66L78.8074 98.6015C79.0033 98.0345 79.3641 97.3437 79.8487 96.8488L76.3536 93.3536C75.2813 94.4259 74.4874 95.7559 74.0647 97.2096L70.4149 109.616C70.1571 110.484 70.3943 111.423 71.1263 112.064C71.6727 112.704 72.611 112.943 73.4873 112.688L85.8905 109.039C87.3442 108.61 88.6742 107.823 89.7465 106.75L113.786 82.7135L100.387 69.3102ZM117.043 61.99C114.466 59.4124 110.284 59.4124 107.707 61.99L102.717 66.9801L116.118 80.3834L121.108 75.3933C123.685 72.8157 123.685 68.6298 121.108 66.0522L117.043 61.99V61.99Z" fill="white"/>
</g>
<path d="M80.241 82.6235L76.9732 87.651L63.9018 87.651L63.9018 117.816L103.116 117.816L103.116 96.0301L108.018 92.6784L108.018 122.843L59 122.843L59 82.6235L80.241 82.6235Z" fill="white"/>
<defs>
<clipPath id="clip0_609_75">
<rect width="52.7882" height="52.7882" fill="white" transform="matrix(-4.37114e-08 -1 -1 4.37114e-08 123.1 112.788)"/>
</clipPath>
</defs>
</svg>
