<svg width="128" height="128" viewBox="0 0 128 128" fill="none" xmlns="http://www.w3.org/2000/svg">
<g id="Designation_List">
<g id="Clipboard">
<g id="Bars">
<g id="Group 14">
<rect id="Rectangle 82" x="56.1222" y="44.0667" width="31.3556" height="5.53333" rx="2.76667" fill="white"/>
<path id="Vector" fill-rule="evenodd" clip-rule="evenodd" d="M37 40V37.5H32V40H37ZM24.5 42.5V56.25H44.5V42.5H24.5ZM44.5 40C45.8875 40 47 41.1125 47 42.5V56.25C47 57.6375 45.8875 58.75 44.5 58.75H24.5C23.1125 58.75 22 57.6375 22 56.25L22.0125 42.5C22.0125 41.1125 23.1125 40 24.5 40H29.5V37.5C29.5 36.1125 30.6125 35 32 35H37C38.3875 35 39.5 36.1125 39.5 37.5V40H44.5Z" fill="white"/>
</g>
<g id="Group 15">
<rect id="Rectangle 82_2" x="56" y="69" width="31.3556" height="5.53333" rx="2.76667" fill="white"/>
<path id="Vector_2" fill-rule="evenodd" clip-rule="evenodd" d="M37 65V62.5H32V65H37ZM24.5 67.5V81.25H44.5V67.5H24.5ZM44.5 65C45.8875 65 47 66.1125 47 67.5V81.25C47 82.6375 45.8875 83.75 44.5 83.75H24.5C23.1125 83.75 22 82.6375 22 81.25L22.0125 67.5C22.0125 66.1125 23.1125 65 24.5 65H29.5V62.5C29.5 61.1125 30.6125 60 32 60H37C38.3875 60 39.5 61.1125 39.5 62.5V65H44.5Z" fill="white"/>
</g>
<g id="Group 16">
<rect id="Rectangle 82_3" x="56" y="96" width="31.3556" height="5.53333" rx="2.76667" fill="white"/>
<path id="Vector_3" fill-rule="evenodd" clip-rule="evenodd" d="M37 92V89.5H32V92H37ZM24.5 94.5V108.25H44.5V94.5H24.5ZM44.5 92C45.8875 92 47 93.1125 47 94.5V108.25C47 109.638 45.8875 110.75 44.5 110.75H24.5C23.1125 110.75 22 109.638 22 108.25L22.0125 94.5C22.0125 93.1125 23.1125 92 24.5 92H29.5V89.5C29.5 88.1125 30.6125 87 32 87H37C38.3875 87 39.5 88.1125 39.5 89.5V92H44.5Z" fill="white"/>
</g>
</g>
<path id="Vector_4" d="M90.8889 15.6962H69.7567C67.6333 9.49239 62.0722 5 55.5 5C48.9278 5 43.3667 9.49239 41.2433 15.6962H20.1111C14.55 15.6962 10 20.5095 10 26.3923V111.962C10 117.845 14.55 122.658 20.1111 122.658H90.8889C96.45 122.658 101 117.845 101 111.962V26.3923C101 20.5095 96.45 15.6962 90.8889 15.6962ZM55.5 15.6962C58.2806 15.6962 60.5556 18.1028 60.5556 21.0443C60.5556 23.9857 58.2806 26.3923 55.5 26.3923C52.7194 26.3923 50.4444 23.9857 50.4444 21.0443C50.4444 18.1028 52.7194 15.6962 55.5 15.6962ZM95.9444 116.465H16.1199V21.8887H30.2222V32.0219H80.7778V21.8887H95.4123L95.9444 116.465Z" fill="white"/>
</g>
</g>
</svg>
