<svg width="128" height="128" viewBox="0 0 128 128" fill="none" xmlns="http://www.w3.org/2000/svg">
<g id="Designation_List">
<g id="Clipboard">
<g id="Bars">
<g id="Group 14">
<rect id="Rectangle 82" x="56.1222" y="44.0667" width="31.3556" height="5.53333" rx="2.76667" fill="white"/>
<g id="bi:briefcase" clip-path="url(#clip0_517_159)">
<path id="Vector" d="M31.9688 34.6875C31.2974 34.6875 30.6536 34.9542 30.1789 35.4289C29.7042 35.9036 29.4375 36.5474 29.4375 37.2188V38.0625H23.5312C22.8599 38.0625 22.2161 38.3292 21.7414 38.8039C21.2667 39.2786 21 39.9224 21 40.5938V54.0938C21 54.7651 21.2667 55.4089 21.7414 55.8836C22.2161 56.3583 22.8599 56.625 23.5312 56.625H45.4688C46.1401 56.625 46.7839 56.3583 47.2586 55.8836C47.7333 55.4089 48 54.7651 48 54.0938V40.5938C48 39.9224 47.7333 39.2786 47.2586 38.8039C46.7839 38.3292 46.1401 38.0625 45.4688 38.0625H39.5625V37.2188C39.5625 36.5474 39.2958 35.9036 38.8211 35.4289C38.3464 34.9542 37.7026 34.6875 37.0312 34.6875H31.9688ZM31.9688 36.375H37.0312C37.255 36.375 37.4696 36.4639 37.6279 36.6221C37.7861 36.7804 37.875 36.995 37.875 37.2188V38.0625H31.125V37.2188C31.125 36.995 31.2139 36.7804 31.3721 36.6221C31.5304 36.4639 31.745 36.375 31.9688 36.375V36.375ZM35.1514 48.0424L46.3125 45.0673V54.0938C46.3125 54.3175 46.2236 54.5321 46.0654 54.6904C45.9071 54.8486 45.6925 54.9375 45.4688 54.9375H23.5312C23.3075 54.9375 23.0929 54.8486 22.9346 54.6904C22.7764 54.5321 22.6875 54.3175 22.6875 54.0938V45.0656L33.8486 48.0424C34.2754 48.156 34.7246 48.156 35.1514 48.0424V48.0424ZM23.5312 39.75H45.4688C45.6925 39.75 45.9071 39.8389 46.0654 39.9971C46.2236 40.1554 46.3125 40.37 46.3125 40.5938V43.3208L34.7177 46.4122C34.5751 46.4503 34.4249 46.4503 34.2823 46.4122L22.6875 43.3208V40.5938C22.6875 40.37 22.7764 40.1554 22.9346 39.9971C23.0929 39.8389 23.3075 39.75 23.5312 39.75V39.75Z" fill="white"/>
</g>
</g>
<g id="Group 15">
<rect id="Rectangle 82_2" x="56" y="69" width="31.3556" height="5.53333" rx="2.76667" fill="white"/>
<g id="bi:briefcase_2" clip-path="url(#clip1_517_159)">
<path id="Vector_2" d="M31.9688 59.6875C31.2974 59.6875 30.6536 59.9542 30.1789 60.4289C29.7042 60.9036 29.4375 61.5474 29.4375 62.2188V63.0625H23.5312C22.8599 63.0625 22.2161 63.3292 21.7414 63.8039C21.2667 64.2786 21 64.9224 21 65.5938V79.0938C21 79.7651 21.2667 80.4089 21.7414 80.8836C22.2161 81.3583 22.8599 81.625 23.5312 81.625H45.4688C46.1401 81.625 46.7839 81.3583 47.2586 80.8836C47.7333 80.4089 48 79.7651 48 79.0938V65.5938C48 64.9224 47.7333 64.2786 47.2586 63.8039C46.7839 63.3292 46.1401 63.0625 45.4688 63.0625H39.5625V62.2188C39.5625 61.5474 39.2958 60.9036 38.8211 60.4289C38.3464 59.9542 37.7026 59.6875 37.0312 59.6875H31.9688ZM31.9688 61.375H37.0312C37.255 61.375 37.4696 61.4639 37.6279 61.6221C37.7861 61.7804 37.875 61.995 37.875 62.2188V63.0625H31.125V62.2188C31.125 61.995 31.2139 61.7804 31.3721 61.6221C31.5304 61.4639 31.745 61.375 31.9688 61.375V61.375ZM35.1514 73.0424L46.3125 70.0673V79.0938C46.3125 79.3175 46.2236 79.5321 46.0654 79.6904C45.9071 79.8486 45.6925 79.9375 45.4688 79.9375H23.5312C23.3075 79.9375 23.0929 79.8486 22.9346 79.6904C22.7764 79.5321 22.6875 79.3175 22.6875 79.0938V70.0656L33.8486 73.0424C34.2754 73.156 34.7246 73.156 35.1514 73.0424V73.0424ZM23.5312 64.75H45.4688C45.6925 64.75 45.9071 64.8389 46.0654 64.9971C46.2236 65.1554 46.3125 65.37 46.3125 65.5938V68.3208L34.7177 71.4122C34.5751 71.4503 34.4249 71.4503 34.2823 71.4122L22.6875 68.3208V65.5938C22.6875 65.37 22.7764 65.1554 22.9346 64.9971C23.0929 64.8389 23.3075 64.75 23.5312 64.75V64.75Z" fill="white"/>
</g>
</g>
<g id="Group 16">
<rect id="Rectangle 82_3" x="56" y="96" width="31.3556" height="5.53333" rx="2.76667" fill="white"/>
<g id="bi:briefcase_3" clip-path="url(#clip2_517_159)">
<path id="Vector_3" d="M31.9688 86.6875C31.2974 86.6875 30.6536 86.9542 30.1789 87.4289C29.7042 87.9036 29.4375 88.5474 29.4375 89.2188V90.0625H23.5312C22.8599 90.0625 22.2161 90.3292 21.7414 90.8039C21.2667 91.2786 21 91.9224 21 92.5938V106.094C21 106.765 21.2667 107.409 21.7414 107.884C22.2161 108.358 22.8599 108.625 23.5312 108.625H45.4688C46.1401 108.625 46.7839 108.358 47.2586 107.884C47.7333 107.409 48 106.765 48 106.094V92.5938C48 91.9224 47.7333 91.2786 47.2586 90.8039C46.7839 90.3292 46.1401 90.0625 45.4688 90.0625H39.5625V89.2188C39.5625 88.5474 39.2958 87.9036 38.8211 87.4289C38.3464 86.9542 37.7026 86.6875 37.0312 86.6875H31.9688ZM31.9688 88.375H37.0312C37.255 88.375 37.4696 88.4639 37.6279 88.6221C37.7861 88.7804 37.875 88.995 37.875 89.2188V90.0625H31.125V89.2188C31.125 88.995 31.2139 88.7804 31.3721 88.6221C31.5304 88.4639 31.745 88.375 31.9688 88.375V88.375ZM35.1514 100.042L46.3125 97.0673V106.094C46.3125 106.318 46.2236 106.532 46.0654 106.69C45.9071 106.849 45.6925 106.938 45.4688 106.938H23.5312C23.3075 106.938 23.0929 106.849 22.9346 106.69C22.7764 106.532 22.6875 106.318 22.6875 106.094V97.0656L33.8486 100.042C34.2754 100.156 34.7246 100.156 35.1514 100.042V100.042ZM23.5312 91.75H45.4688C45.6925 91.75 45.9071 91.8389 46.0654 91.9971C46.2236 92.1554 46.3125 92.37 46.3125 92.5938V95.3208L34.7177 98.4122C34.5751 98.4503 34.4249 98.4503 34.2823 98.4122L22.6875 95.3208V92.5938C22.6875 92.37 22.7764 92.1554 22.9346 91.9971C23.0929 91.8389 23.3075 91.75 23.5312 91.75V91.75Z" fill="white"/>
</g>
</g>
</g>
<path id="Vector_4" d="M90.8889 15.6962H69.7567C67.6333 9.49239 62.0722 5 55.5 5C48.9278 5 43.3667 9.49239 41.2433 15.6962H20.1111C14.55 15.6962 10 20.5095 10 26.3923V111.962C10 117.845 14.55 122.658 20.1111 122.658H90.8889C96.45 122.658 101 117.845 101 111.962V26.3923C101 20.5095 96.45 15.6962 90.8889 15.6962ZM55.5 15.6962C58.2806 15.6962 60.5556 18.1028 60.5556 21.0443C60.5556 23.9857 58.2806 26.3923 55.5 26.3923C52.7194 26.3923 50.4444 23.9857 50.4444 21.0443C50.4444 18.1028 52.7194 15.6962 55.5 15.6962ZM95.9444 116.465H16.1199V21.8887H30.2222V32.0219H80.7778V21.8887H95.4123L95.9444 116.465Z" fill="white"/>
</g>
</g>
<defs>
<clipPath id="clip0_517_159">
<rect width="27" height="27" fill="white" transform="translate(21 33)"/>
</clipPath>
<clipPath id="clip1_517_159">
<rect width="27" height="27" fill="white" transform="translate(21 58)"/>
</clipPath>
<clipPath id="clip2_517_159">
<rect width="27" height="27" fill="white" transform="translate(21 85)"/>
</clipPath>
</defs>
</svg>
