<svg width="128" height="128" viewBox="0 0 128 128" fill="none" xmlns="http://www.w3.org/2000/svg">
<g id="Division_List">
<g id="Clipboard">
<g id="First_Bars">
<rect id="Rectangle 82" x="22.5059" y="43.281" width="25" height="5.62957" rx="2.81478" fill="white"/>
<rect id="Rectangle 84" x="22.5059" y="60.1698" width="25" height="5.62957" rx="2.81478" fill="white"/>
<rect id="Rectangle 85" x="22.5059" y="77.0583" width="25" height="5.62956" rx="2.81478" fill="white"/>
<rect id="Rectangle 86" x="22.5059" y="93.9471" width="25" height="5.62957" rx="2.81479" fill="white"/>
</g>
<g id="Second_Bars">
<rect id="Rectangle 82_2" x="64" y="43" width="25" height="5.62957" rx="2.81478" fill="white"/>
<rect id="Rectangle 84_2" x="64" y="59.8888" width="25" height="5.62957" rx="2.81478" fill="white"/>
<rect id="Rectangle 85_2" x="64" y="76.7773" width="25" height="5.62956" rx="2.81478" fill="white"/>
<rect id="Rectangle 86_2" x="64" y="93.6661" width="25" height="5.62957" rx="2.81479" fill="white"/>
</g>
<path id="Vector" d="M90.8889 15.6962H69.7567C67.6333 9.49239 62.0722 5 55.5 5C48.9278 5 43.3667 9.49239 41.2433 15.6962H20.1111C14.55 15.6962 10 20.5095 10 26.3923V111.962C10 117.845 14.55 122.658 20.1111 122.658H90.8889C96.45 122.658 101 117.845 101 111.962V26.3923C101 20.5095 96.45 15.6962 90.8889 15.6962ZM55.5 15.6962C58.2806 15.6962 60.5556 18.1028 60.5556 21.0443C60.5556 23.9857 58.2806 26.3923 55.5 26.3923C52.7194 26.3923 50.4444 23.9857 50.4444 21.0443C50.4444 18.1028 52.7194 15.6962 55.5 15.6962ZM95.9444 116.465H16.1199V21.8887H30.2222V32.0219H80.7778V21.8887H95.4123L95.9444 116.465Z" fill="white"/>
</g>
<rect id="Rectangle 162" x="54" y="41" width="2" height="63" rx="1" fill="white"/>
</g>
</svg>
