<svg width="128" height="128" viewBox="0 0 128 128" fill="none" xmlns="http://www.w3.org/2000/svg">
<g id="Employee_Alteration">
<path id="Employee" d="M45.5 46.5C56.7047 46.5 65.7857 37.2111 65.7857 25.75C65.7857 14.2889 56.7047 5 45.5 5C34.2953 5 25.2143 14.2889 25.2143 25.75C25.2143 37.2111 34.2953 46.5 45.5 46.5ZM60.6826 51.7848L53.1071 82.8125L48.0357 60.7656L53.1071 51.6875H37.8929L42.9643 60.7656L37.8929 82.8125L30.3174 51.7848C19.0176 52.3359 10 61.7869 10 73.475V80.2188C10 84.5146 13.4074 88 17.6071 88H73.3929C77.5926 88 81 84.5146 81 80.2188V73.475C81 61.7869 71.9824 52.3359 60.6826 51.7848V51.7848Z" fill="white"/>
<g id="Edit_Pencil">
<g id="Pencil" clip-path="url(#clip0_523_83)">
<path id="Vector" d="M104.929 80.4074L85.807 99.5371L88.5879 102.318L88.875 102.031L88.875 105.813C88.875 106.534 89.4656 107.125 90.1875 107.125L93.9692 107.125L93.682 107.411C93.2883 107.799 92.8125 108.084 92.2875 108.239L85.8727 110.124L87.7594 103.713C87.9152 103.261 88.2024 102.712 88.5879 102.318L85.807 99.5371C84.9539 100.39 84.3223 101.448 83.986 102.605L81.082 112.476C80.877 113.167 81.0656 113.914 81.6481 114.423C82.0828 114.933 82.8293 115.123 83.5266 114.92L93.3949 112.017C94.5516 111.675 95.6098 111.049 96.4629 110.195L115.589 91.0715L104.929 80.4074ZM118.181 74.5832C116.131 72.5324 112.804 72.5324 110.753 74.5832L106.782 78.5535L117.445 89.2176L121.415 85.2473C123.466 83.1965 123.466 79.866 121.415 77.8153L118.181 74.5832V74.5832Z" fill="white"/>
</g>
<path id="Rectangle 168" d="M88.9 91L86.3 95L75.9 95L75.9 119L107.1 119L107.1 101.667L111 99L111 123L72 123L72 91L88.9 91Z" fill="white"/>
</g>
</g>
<defs>
<clipPath id="clip0_523_83">
<rect width="42" height="42" fill="white" transform="matrix(-4.37114e-08 -1 -1 4.37114e-08 123 115)"/>
</clipPath>
</defs>
</svg>
