<svg width="128" height="128" viewBox="0 0 128 128" fill="none" xmlns="http://www.w3.org/2000/svg">
<g id="Employee_Details">
<path id="Subtract" fill-rule="evenodd" clip-rule="evenodd" d="M63.8467 14.6364H82.8889C87.9 14.6364 92 18.9727 92 24.2727V62H87.2001L86.9649 20.2153H73.7778V29.3445H28.2222V20.2153H15.5146V105.421H59V111H19.1111C14.1 111 10 106.664 10 101.364V24.2727C10 18.9727 14.1 14.6364 19.1111 14.6364H38.1533C40.0667 9.04727 45.0778 5 51 5C56.9222 5 61.9333 9.04727 63.8467 14.6364ZM55.5556 19.4545C55.5556 16.8045 53.5056 14.6364 51 14.6364C48.4944 14.6364 46.4444 16.8045 46.4444 19.4545C46.4444 22.1045 48.4944 24.2727 51 24.2727C53.5056 24.2727 55.5556 22.1045 55.5556 19.4545Z" fill="white"/>
<rect id="Rectangle 163" x="33" y="39" width="48" height="5" rx="2.5" fill="white"/>
<rect id="Rectangle 164" x="33" y="53" width="48" height="5" rx="2.5" fill="white"/>
<rect id="Rectangle 165" x="33" y="68" width="40" height="5" rx="2.5" fill="white"/>
<rect id="Rectangle 166" x="33" y="83" width="40" height="5" rx="2.5" fill="white"/>
<circle id="Ellipse 30" cx="23.5" cy="41.5" r="3.5" fill="white"/>
<circle id="Ellipse 31" cx="23.5" cy="55.5" r="3.5" fill="white"/>
<circle id="Ellipse 32" cx="23.5" cy="70.5" r="3.5" fill="white"/>
<circle id="Ellipse 33" cx="23.5" cy="85.5" r="3.5" fill="white"/>
<g id="clarity:employee-solid">
<path id="Vector" d="M85.7833 89.4805C92.7206 89.4805 98.3444 83.8567 98.3444 76.9194C98.3444 69.9821 92.7206 64.3583 85.7833 64.3583C78.846 64.3583 73.2222 69.9821 73.2222 76.9194C73.2222 83.8567 78.846 89.4805 85.7833 89.4805Z" fill="white"/>
<path id="Vector_2" d="M93.8333 112.444H107.444V115.167H93.8333V112.444Z" fill="white"/>
<path id="Vector_3" d="M82.1667 116.333V122.167C82.1667 122.682 82.3715 123.177 82.7362 123.542C83.1008 123.906 83.5954 124.111 84.1111 124.111H117.167C117.682 124.111 118.177 123.906 118.542 123.542C118.906 123.177 119.111 122.682 119.111 122.167V102.722C119.111 102.206 118.906 101.712 118.542 101.347C118.177 100.983 117.682 100.778 117.167 100.778H103.556V97.9194C103.556 97.4037 103.351 96.9091 102.986 96.5445C102.621 96.1798 102.127 95.975 101.611 95.975C101.095 95.975 100.601 96.1798 100.236 96.5445C99.8715 96.9091 99.6667 97.4037 99.6667 97.9194V100.778H95.7778V93.8166C92.4736 93.277 89.1313 93.0039 85.7833 93C78.3999 92.9686 71.0992 94.5548 64.3944 97.6472C63.2909 98.1679 62.36 98.9943 61.712 100.028C61.0641 101.062 60.7263 102.26 60.7389 103.481V116.333H82.1667ZM115.222 120.222H86.0555V104.667H99.6667V105.483C99.6667 105.999 99.8715 106.494 100.236 106.858C100.601 107.223 101.095 107.428 101.611 107.428C102.127 107.428 102.621 107.223 102.986 106.858C103.351 106.494 103.556 105.999 103.556 105.483V104.667H115.222V120.222Z" fill="white"/>
</g>
</g>
</svg>
