<svg width="128" height="128" viewBox="0 0 128 128" fill="none" xmlns="http://www.w3.org/2000/svg">
<g id="Employee_Details">
<path id="Subtract" fill-rule="evenodd" clip-rule="evenodd" d="M63.8467 14.6364H82.8889C87.9 14.6364 92 18.9727 92 24.2727V62H87.2001L86.9649 20.2153H73.7778V29.3445H28.2222V20.2153H15.5146V105.421H59V111H19.1111C14.1 111 10 106.664 10 101.364V24.2727C10 18.9727 14.1 14.6364 19.1111 14.6364H38.1533C40.0667 9.04727 45.0778 5 51 5C56.9222 5 61.9333 9.04727 63.8467 14.6364ZM55.5556 19.4545C55.5556 16.8045 53.5056 14.6364 51 14.6364C48.4944 14.6364 46.4444 16.8045 46.4444 19.4545C46.4444 22.1045 48.4944 24.2727 51 24.2727C53.5056 24.2727 55.5556 22.1045 55.5556 19.4545Z" fill="white"/>
<rect id="Rectangle 163" x="33" y="39" width="48" height="5" rx="2.5" fill="white"/>
<rect id="Rectangle 164" x="33" y="53" width="48" height="5" rx="2.5" fill="white"/>
<rect id="Rectangle 165" x="33" y="68" width="40" height="5" rx="2.5" fill="white"/>
<rect id="Rectangle 166" x="33" y="83" width="40" height="5" rx="2.5" fill="white"/>
<circle id="Ellipse 30" cx="23.5" cy="41.5" r="3.5" fill="white"/>
<circle id="Ellipse 31" cx="23.5" cy="55.5" r="3.5" fill="white"/>
<circle id="Ellipse 32" cx="23.5" cy="70.5" r="3.5" fill="white"/>
<circle id="Ellipse 33" cx="23.5" cy="85.5" r="3.5" fill="white"/>
<g id="fa-solid:user-tie">
<path id="Vector" d="M91 93.5C99.5219 93.5 106.429 86.8971 106.429 78.75C106.429 70.6029 99.5219 64 91 64C82.4781 64 75.5714 70.6029 75.5714 78.75C75.5714 86.8971 82.4781 93.5 91 93.5ZM102.547 97.2566L96.7857 119.312L92.9286 103.641L96.7857 97.1875H85.2143L89.0714 103.641L85.2143 119.312L79.4527 97.2566C70.8585 97.6484 64 104.367 64 112.675V117.469C64 120.522 66.5915 123 69.7857 123H112.214C115.408 123 118 120.522 118 117.469V112.675C118 104.367 111.142 97.6484 102.547 97.2566V97.2566Z" fill="white"/>
</g>
</g>
</svg>
