<svg width="128" height="128" viewBox="0 0 128 128" fill="none" xmlns="http://www.w3.org/2000/svg">
<path d="M59.034 70.7863L52.4879 76.9879C51.7988 78.0215 50.6313 78.5 49.4062 78.5H41.75V86.1562C41.75 88.702 39.702 90.75 37.1562 90.75H29.5V98.4062C29.5 100.952 27.452 103 24.9062 103H9.59375C7.05762 103 5 100.952 5 98.4062V83.0938C5 81.8687 5.48407 80.7012 6.34539 79.8398L37.2137 48.966C36.1801 45.7312 35.625 42.2668 35.625 38.6875C35.625 20.0828 50.7078 5 69.3125 5C87.9172 5 103 20.0828 103 38.6875C103 57.2922 87.9172 72.375 69.3125 72.375C65.7332 72.375 62.2687 71.8199 59.034 70.7863ZM76.9688 38.6875C81.1988 38.6875 84.625 35.2613 84.625 31.0312C84.625 26.8012 81.1988 23.375 76.9688 23.375C72.7387 23.375 69.3125 26.8012 69.3125 31.0312C69.3125 35.2613 72.7387 38.6875 76.9688 38.6875Z" fill="white"/>
<path d="M98 95.5C105.891 95.5 112.286 89.3447 112.286 81.75C112.286 74.1553 105.891 68 98 68C90.1094 68 83.7143 74.1553 83.7143 81.75C83.7143 89.3447 90.1094 95.5 98 95.5ZM108.692 99.002L103.357 119.562L99.7857 104.953L103.357 98.9375H92.6429L96.2143 104.953L92.6429 119.562L87.308 99.002C79.3504 99.3672 73 105.63 73 113.375V117.844C73 120.69 75.3996 123 78.3571 123H117.643C120.6 123 123 120.69 123 117.844V113.375C123 105.63 116.65 99.3672 108.692 99.002V99.002Z" fill="white"/>
</svg>
