<svg width="128" height="128" viewBox="0 0 128 128" fill="none" xmlns="http://www.w3.org/2000/svg">
<g id="Employee_Alteration_1">
<path id="Subtract" fill-rule="evenodd" clip-rule="evenodd" d="M77.5714 29.1327C77.5714 42.4622 66.5719 53.2653 53 53.2653C39.4281 53.2653 28.4286 42.4622 28.4286 29.1327C28.4286 15.8031 39.4281 5 53 5C66.5719 5 77.5714 15.8031 77.5714 29.1327ZM62.2143 95.4974L71.3902 59.4116C79.9394 59.812 87.4101 64.2507 91.8141 70.8393C80.8226 74.9633 73 85.5681 73 98C73 99.1951 73.0723 100.373 73.2128 101.531H19.2143C14.1272 101.531 10 97.4771 10 92.4809V84.6377C10 71.0443 20.9228 60.0526 34.6098 59.4116L43.7857 95.4974L49.9286 69.8565L43.7857 59.2985H62.2143L56.0714 69.8565L62.2143 95.4974Z" fill="white"/>
<path id="Subtract_2" fill-rule="evenodd" clip-rule="evenodd" d="M90.7287 85.5705C87.3595 88.645 85.2116 93.046 85.2116 97.9525C85.2116 106.523 91.6552 113.619 99.952 114.651V118.905C89.3178 117.852 81 108.881 81 97.9525C81 91.8668 83.6112 86.4128 87.7385 82.5803L83.1058 77.9476H95.7404V89.0719L94.5505 89.3924L90.7287 85.5705ZM104.164 77C114.798 78.0529 123.116 87.0235 123.116 97.9525C123.116 104.038 120.504 109.492 116.377 113.325L121.01 117.957H108.375V105.323L113.387 110.334C116.756 107.26 118.904 102.859 118.904 97.9525C118.904 89.382 112.46 82.2855 104.164 81.2537V77Z" fill="white"/>
</g>
</svg>
