<svg width="128" height="128" viewBox="0 0 128 128" fill="none" xmlns="http://www.w3.org/2000/svg">
<g id="Monthly_Salary">
<g id="Money_Bag">
<path id="Subtract" fill-rule="evenodd" clip-rule="evenodd" d="M85.4316 67.7333C82.7206 54.4424 74.7894 39.1145 64.4866 32.4371C67.5455 32.6844 70.6141 32.4306 73.5754 31.3535C75.3587 30.7059 74.5891 27.8 72.7895 28.4573C70.362 29.3408 67.9295 29.5816 65.5019 29.458C71.4618 23.9959 76.1413 15.6247 76.1413 9.50372C76.1413 8.03286 76.1413 5.29452 73.961 5.29452C73.086 5.29452 72.3784 5.8408 71.4011 6.59532L71.4 6.59617L71.3927 6.60179C69.8925 7.75867 67.6296 9.50372 64.3077 9.50372C63.0423 9.50372 60.7277 8.17069 58.8646 7.09774L58.8554 7.09242C56.6019 5.79566 55.162 5.00002 53.9514 5.00002C51.9469 5.00002 49.0003 6.62057 46.4003 8.05076L46.3045 8.10336C45.2573 8.6786 43.8873 9.43116 43.5968 9.50535C39.8326 9.50535 37.6448 7.77134 36.1935 6.62098L36.1888 6.61732C35.3428 5.94372 34.7294 5.4556 33.911 5.4556C31.7665 5.4556 31.7665 8.02798 31.7665 11.0071C31.7665 16.7571 36.1465 24.3474 41.8819 29.4482C38.2682 29.7069 34.705 30.7987 32.2009 33.2246C30.8179 34.5621 32.9136 36.6837 34.2917 35.3495C36.3727 33.332 39.1013 32.468 42.0202 32.3004C42.1032 32.5982 42.2041 32.8911 42.3277 33.1791C30.0988 41.9668 21.4119 62.8338 21.4119 76.9209C21.4119 78.2984 21.5174 79.5463 21.6809 80.7218L24.7963 81.3449C24.524 80.0388 24.3699 78.5828 24.3699 76.9225C24.3699 63.7059 32.8159 43.7289 44.0296 35.6327C46.0163 37.5542 49.0296 38.3954 51.8932 36.5259C52.5213 36.1159 53.068 35.579 53.5805 35.0079C53.6374 35.0094 53.695 35.0162 53.7529 35.0231C53.819 35.0309 53.8855 35.0388 53.9514 35.0388C54.3615 35.0388 54.778 35.0046 55.1929 34.9525C55.7184 35.1624 56.2326 35.374 56.7093 35.5838C58.9921 36.5894 60.9413 35.9646 62.2722 34.5783C72.3456 40.6738 80.4551 56.6044 82.807 69.7522L85.4316 67.7333ZM21.5641 80.6984C21.4243 80.6355 21.2886 80.573 21.1568 80.5109L21.3631 80.6582L21.5641 80.6984ZM16.6808 77.3138L16.5193 77.1275L16.5 77.1846L16.6808 77.3138ZM34.7505 9.28407C34.7359 9.72175 34.7261 10.2847 34.7261 11.0071C34.7261 16.077 38.6245 22.4144 43.4406 26.8042C44.0283 26.249 44.702 25.7924 45.4354 25.4522C47.7505 24.347 51.0389 25.628 53.6874 26.6596C54.408 26.9403 55.0812 27.2025 55.6745 27.3932C57.2381 25.6539 60.5361 23.0034 62.6464 25.3936C63.0909 25.9001 63.4443 26.4798 63.691 27.1069C68.9171 22.2208 73.1849 14.7298 73.1849 9.50698C73.1849 9.31987 73.1816 9.15228 73.1784 9.00096C72.5259 9.50372 71.7059 10.1318 70.7069 10.7175C67.0737 16.2463 65.1781 18.3208 61.0877 11.6693C60.4971 11.409 59.8951 11.1031 59.2915 10.7745C58.3366 11.2778 57.3609 13.0133 56.4435 14.6451C55.1693 16.9116 54.0076 18.9779 53.1705 17.2648C49.8675 10.506 48.5333 11.8825 46.5613 14.5102C46.0164 15.2368 45.6596 15.9825 45.3505 16.6284C44.5411 18.3199 44.0592 19.327 41.384 17.5137C38.3414 15.4539 36.5468 12.1835 35.5982 9.91211C35.2891 9.69246 34.9995 9.47932 34.7505 9.28407ZM58.9156 28.3418C59.6361 28.5342 60.3615 28.7078 61.091 28.8625C61.0883 28.8469 61.0856 28.8313 61.083 28.8157C61.0614 28.6893 61.0397 28.5621 61.0064 28.4492C60.6566 27.2858 59.8235 27.5592 58.9156 28.3418ZM47.0641 29.6044C47.6336 29.6776 48.1868 29.7704 48.7253 29.8729C49.8968 29.5003 51.0894 29.2367 52.2984 29.1147C49.848 28.2832 47.2838 27.7528 45.7966 28.7502C46.2096 29.0489 46.6323 29.3337 47.0641 29.6044ZM46.7029 33.9633C47.5604 34.305 48.5529 34.3961 49.464 34.1683C48.8929 33.9633 48.3234 33.7339 47.754 33.4589L47.6918 33.4874C47.3611 33.6389 47.0305 33.7903 46.7029 33.9633Z" fill="white"/>
<path id="Vector 4" d="M22.825 77.45L23.4 82.625L23.975 84.925L25.7 87.8L29.15 91.825L33.75 94.7L38.35 96.425L43.525 97.575L51 98.725H59.625L67.675 97.575L72.85 95.85L77.45 93.55L82.05 90.1L84.925 84.925L85.5 80.325V75.725L84.925 71.7L84.35 68.825L83.2 64.8" stroke="white" stroke-width="2.5"/>
</g>
<path id="Rupee" d="M66 54.4V50.275H43V54.4H50.3182C53.0405 54.4 55.3385 56.1284 56.2041 58.525H43V62.65H56.2041C55.7749 63.8529 54.9787 64.8953 53.9248 65.6339C52.8709 66.3725 51.611 66.7711 50.3182 66.775H43V71.7539L54.6798 83.275H60.5929L48.0475 70.9H50.3182C52.7268 70.8968 55.0607 70.0745 56.9263 68.5717C58.7919 67.0688 60.075 64.9774 60.5595 62.65H66V58.525H60.5595C60.2389 57.0239 59.5785 55.6138 58.6275 54.4H66Z" fill="white"/>
<path id="Vector" d="M95.286 86.5828C93.4014 84.8552 90.4626 84.9683 88.4822 86.5828L73.7247 98.5146C71.9199 99.9839 69.668 100.775 67.3361 100.775H48.442C47.0366 100.775 45.8866 99.6125 45.8866 98.1917C45.8866 96.7709 47.0366 95.6084 48.442 95.6084H60.9476C63.487 95.6084 65.8508 93.8485 66.2661 91.3136C66.7931 88.0844 64.3335 85.275 61.2191 85.275H35.665C31.3527 85.275 27.1842 86.7766 23.8302 89.5214L16.4035 95.6084H7.55541C6.14994 95.6084 5 96.7709 5 98.1917V113.692C5 115.113 6.14994 116.275 7.55541 116.275H64.5412C66.857 116.275 69.109 115.484 70.9297 114.015L95.0784 94.4781C97.506 92.5245 97.6977 88.7787 95.286 86.5828Z" fill="white"/>
<g id="el:calendar">
<path id="Vector_2" d="M87.976 5V12.0507H91.6787V5H87.976ZM109.321 5V12.0507H113.018V5H109.321ZM80.4088 8.3888V18.2598H120.591V8.3888H115.666V14.6945H106.674V8.3888H94.3207V14.6945H85.334V8.3888H80.4088V8.3888ZM80.4088 20.8516V50H120.591V20.8515L80.4088 20.8516ZM96.1934 27.5864C98.2388 27.6065 100.174 28.5893 100.944 30.4178C101.306 31.5101 101.499 32.6746 101.048 33.6914C100.484 34.8646 99.3404 35.4753 98.2185 35.8689C100.324 36.4183 101.71 37.7424 101.722 39.8931C101.689 41.3683 100.998 42.675 99.9556 43.529C98.8472 44.4053 97.5069 44.8948 96.1934 44.9038C92.4893 44.9038 90.6365 43.2338 90.6365 39.8931H93.9064C93.9758 41.2996 94.6409 42.3693 96.0095 42.3882C97.7493 42.2697 98.4383 41.1265 98.4526 39.6627C98.4518 38.7785 98.129 37.8725 97.3602 37.5317C96.3683 37.1195 95.261 37.1685 94.2946 37.1675V34.6241C95.8744 34.657 98.0445 34.3783 98.0606 32.495C97.9992 31.1097 97.4322 30.1213 96.0875 30.1039C94.6552 30.1902 93.8691 31.0045 93.8543 32.2906H90.6365C90.7063 29.0478 93.3701 27.6009 96.1934 27.5864V27.5864ZM107.48 27.9004H110.362V44.5954H107.244V31.1703C106.05 32.1915 104.728 32.9187 103.274 33.3514V30.4959C104.97 29.8381 106.372 28.9736 107.48 27.9004Z" fill="white"/>
</g>
</g>
</svg>
