<svg width="128" height="128" viewBox="0 0 128 128" fill="none" xmlns="http://www.w3.org/2000/svg">
<g id="Payslip">
<path id="Document" fill-rule="evenodd" clip-rule="evenodd" d="M25.7431 70.9093V9.65697C25.7431 7.08943 27.8249 5 30.383 5H73.6889C73.7473 5 73.802 5.01476 73.8569 5.02957C73.8893 5.03829 73.9216 5.04703 73.9549 5.05278C73.963 5.054 73.971 5.05517 73.9788 5.05632C74.0307 5.06394 74.077 5.07075 74.1281 5.08693C74.3909 5.16125 74.6291 5.30491 74.8179 5.50295C74.8225 5.50761 74.8279 5.50994 74.8334 5.51227C74.8388 5.5146 74.8442 5.51692 74.8488 5.52158L99.595 33.4634C99.6058 33.4774 99.6105 33.4929 99.6151 33.5084C99.6198 33.5239 99.6244 33.5394 99.6352 33.5534C99.77 33.7283 99.865 33.9307 99.9136 34.1464C99.9173 34.1627 99.9212 34.1787 99.925 34.1945C99.9372 34.2449 99.9491 34.2939 99.9538 34.3482C99.9552 34.3711 99.9613 34.3927 99.9674 34.4145C99.9745 34.4399 99.9817 34.4657 99.9817 34.4941V69.8932L96.8884 72.1204V36.0464H76.7821C74.1683 36.0464 72.1422 33.125 72.1422 30.6133V8.10464H30.383C29.9728 8.10464 29.5795 8.26819 29.2894 8.55931C28.9994 8.85043 28.8364 9.24527 28.8364 9.65697V72.8826L25.7431 70.9093ZM94.9922 32.9418L75.2355 10.6349V30.6133C75.2355 31.6378 76.1016 32.9418 76.7821 32.9418H94.9922Z" fill="white"/>
<path id="Envelope" fill-rule="evenodd" clip-rule="evenodd" d="M98.344 45.6723L114.36 56.2878L72.2361 86.1616H53.4887L11.3649 56.2878L27.3807 45.6723V40.179L6.04152 54.3308C5.72476 54.5383 5.4641 54.82 5.28249 55.1513C5.10088 55.4825 5.00387 55.853 5 56.2303V116.093C5 117.925 5.73154 119.682 7.0337 120.977C8.33586 122.272 10.102 123 11.9435 123H113.781C115.623 123 117.389 122.272 118.691 120.977C119.993 119.682 120.725 117.925 120.725 116.093V56.2303C120.721 55.853 120.624 55.4825 120.442 55.1513C120.261 54.82 120 54.5383 119.683 54.3308L98.344 40.179V45.6723ZM9.62899 115.978L48.744 88.464L9.62899 60.72V115.978ZM111.525 118.395L72.2361 90.7664H53.4887L14.2001 118.395H111.525ZM116.096 60.72L76.9808 88.464L116.096 115.978V60.72Z" fill="white"/>
<path id="Rupee" d="M66 23.5V18H34V23.5H44.1818C47.9695 23.5 51.1665 25.8045 52.3709 29H34V34.5H52.3709C51.7738 36.1039 50.666 37.4937 49.1997 38.4785C47.7334 39.4633 45.9805 39.9948 44.1818 40H34V46.6385L50.2502 62H58.4771L41.0225 45.5H44.1818C47.533 45.4958 50.7801 44.3993 53.3757 42.3955C55.9713 40.3917 57.7566 37.6032 58.4305 34.5H66V29H58.4305C57.9846 26.9986 57.0657 25.1183 55.7425 23.5H66Z" fill="white"/>
<rect id="Rectangle 172" x="64" y="43" width="30" height="3" rx="1.5" fill="white"/>
<rect id="Rectangle 173" x="64" y="51" width="30" height="3" rx="1.5" fill="white"/>
<rect id="Rectangle 174" x="64" y="59" width="30" height="3" rx="1.5" fill="white"/>
<rect id="Rectangle 175" x="34" y="67" width="60" height="3" rx="1.5" fill="white"/>
<rect id="Rectangle 176" x="47" y="76" width="34" height="3" rx="1.5" fill="white"/>
</g>
</svg>
