<svg width="128" height="128" viewBox="0 0 128 128" fill="none" xmlns="http://www.w3.org/2000/svg">
<path d="M59.034 70.7863L52.4879 76.9879C51.7988 78.0215 50.6313 78.5 49.4062 78.5H41.75V86.1562C41.75 88.702 39.702 90.75 37.1562 90.75H29.5V98.4062C29.5 100.952 27.452 103 24.9062 103H9.59375C7.05762 103 5 100.952 5 98.4062V83.0938C5 81.8687 5.48407 80.7012 6.34539 79.8398L37.2137 48.966C36.1801 45.7312 35.625 42.2668 35.625 38.6875C35.625 20.0828 50.7078 5 69.3125 5C87.9172 5 103 20.0828 103 38.6875C103 57.2922 87.9172 72.375 69.3125 72.375C65.7332 72.375 62.2687 71.8199 59.034 70.7863ZM76.9688 38.6875C81.1988 38.6875 84.625 35.2613 84.625 31.0312C84.625 26.8012 81.1988 23.375 76.9688 23.375C72.7387 23.375 69.3125 26.8012 69.3125 31.0312C69.3125 35.2613 72.7387 38.6875 76.9688 38.6875Z" fill="white"/>
<path d="M98 105C102.456 105 106 101.451 106 97C106 92.5493 102.456 89 98 89C93.544 89 90 92.5493 90 97C90 101.451 93.544 105 98 105Z" fill="white"/>
<path d="M122.481 92.1801C121.814 88.8979 120.509 85.7804 118.642 83.0059C116.808 80.2764 114.471 77.9256 111.757 76.0804C108.999 74.2032 105.9 72.891 102.637 72.2187C100.923 71.8691 99.1779 71.6972 97.4291 71.7057V66L86.1667 74.55L97.4291 83.1V77.4057C98.8005 77.4 100.172 77.5311 101.495 77.8047C104.031 78.3274 106.44 79.3471 108.584 80.8057C110.699 82.24 112.519 84.0708 113.945 86.1979C116.158 89.4903 117.339 93.3753 117.333 97.35C117.333 100.017 116.803 102.658 115.775 105.116C115.275 106.301 114.664 107.434 113.95 108.502C113.234 109.563 112.42 110.555 111.519 111.463C108.777 114.217 105.295 116.106 101.501 116.898C98.862 117.434 96.1436 117.434 93.505 116.898C90.9679 116.375 88.5581 115.354 86.4132 113.894C84.3009 112.461 82.4827 110.632 81.0582 108.508C78.8469 105.212 77.6658 101.326 77.6667 97.35H72C72.003 102.462 73.5212 107.457 76.3605 111.697C78.1961 114.422 80.5308 116.77 83.2398 118.617C87.4491 121.482 92.4173 123.009 97.5 123C99.2263 123 100.948 122.825 102.64 122.478C105.9 121.801 108.997 120.489 111.757 118.617C113.112 117.698 114.375 116.649 115.528 115.485C116.683 114.32 117.727 113.049 118.645 111.688C121.492 107.455 123.009 102.46 123 97.35C123 95.6136 122.826 93.8815 122.481 92.1801V92.1801Z" fill="white"/>
</svg>
