<svg width="128" height="128" viewBox="0 0 128 128" fill="none" xmlns="http://www.w3.org/2000/svg">
<path fill-rule="evenodd" clip-rule="evenodd" d="M85.4316 67.7333C82.7206 54.4423 74.7894 39.1145 64.4866 32.4371C67.5455 32.6844 70.6141 32.4306 73.5754 31.3535C75.3586 30.7059 74.589 27.8 72.7895 28.4573C70.362 29.3408 67.9295 29.5816 65.5019 29.4579C71.4618 23.9959 76.1413 15.6247 76.1413 9.5037C76.1413 8.03284 76.1413 5.2945 73.961 5.2945C73.086 5.2945 72.3784 5.84078 71.4011 6.59529L71.4 6.59614L71.3927 6.60176C69.8925 7.75864 67.6296 9.5037 64.3077 9.5037C63.0423 9.5037 60.7277 8.17067 58.8646 7.09771L58.8554 7.0924C56.6019 5.79563 55.162 5 53.9514 5C51.9469 5 49.0003 6.62055 46.4003 8.05073L46.3045 8.10334C45.2573 8.67858 43.8873 9.43114 43.5968 9.50533C39.8326 9.50533 37.6448 7.77131 36.1935 6.62096L36.1888 6.6173C35.3428 5.94369 34.7294 5.45558 33.911 5.45558C31.7665 5.45558 31.7665 8.02796 31.7665 11.0071C31.7665 16.7571 36.1465 24.3474 41.8819 29.4482C38.2682 29.7069 34.705 30.7986 32.2009 33.2246C30.8179 34.562 32.9136 36.6837 34.2917 35.3495C36.3727 33.332 39.1013 32.468 42.0202 32.3004C42.1032 32.5982 42.2041 32.891 42.3277 33.179C30.0988 41.9668 21.4119 62.8338 21.4119 76.9209C21.4119 78.2983 21.5174 79.5463 21.6809 80.7218L24.7963 81.3448C24.524 80.0388 24.3699 78.5828 24.3699 76.9225C24.3699 63.7059 32.8159 43.7289 44.0296 35.6326C46.0163 37.5542 49.0296 38.3954 51.8932 36.5259C52.5213 36.1159 53.0679 35.5789 53.5805 35.0078C53.6374 35.0094 53.695 35.0162 53.7529 35.023C53.819 35.0309 53.8855 35.0388 53.9514 35.0388C54.3615 35.0388 54.778 35.0046 55.1929 34.9525C55.7184 35.1624 56.2326 35.3739 56.7093 35.5838C58.9921 36.5893 60.9413 35.9646 62.2722 34.5783C72.3456 40.6737 80.4551 56.6044 82.807 69.7522L85.4316 67.7333ZM21.5641 80.6984C21.4243 80.6355 21.2886 80.5729 21.1568 80.5109L21.3631 80.6582L21.5641 80.6984ZM16.6808 77.3137L16.5193 77.1275L16.5 77.1846L16.6808 77.3137ZM34.7505 9.28405C34.7359 9.72172 34.7261 10.2847 34.7261 11.0071C34.7261 16.077 38.6245 22.4144 43.4406 26.8042C44.0283 26.249 44.702 25.7924 45.4354 25.4521C47.7505 24.347 51.0389 25.6279 53.6874 26.6596C54.408 26.9403 55.0812 27.2025 55.6745 27.3932C57.2381 25.6539 60.5361 23.0034 62.6464 25.3936C63.0909 25.9001 63.4443 26.4798 63.691 27.1068C68.9171 22.2208 73.1849 14.7298 73.1849 9.50695C73.1849 9.31984 73.1816 9.15225 73.1784 9.00094C72.5259 9.5037 71.7059 10.1317 70.7069 10.7175C67.0737 16.2462 65.1781 18.3207 61.0877 11.6693C60.4971 11.409 59.8951 11.1031 59.2914 10.7744C58.3366 11.2778 57.3609 13.0133 56.4435 14.6451C55.1693 16.9116 54.0076 18.9779 53.1704 17.2648C49.8675 10.506 48.5333 11.8825 46.5613 14.5102C46.0164 15.2367 45.6596 15.9824 45.3505 16.6283C44.5411 18.3199 44.0592 19.327 41.384 17.5137C38.3414 15.4539 36.5468 12.1835 35.5982 9.91209C35.2891 9.69244 34.9995 9.47929 34.7505 9.28405ZM58.9156 28.3418C59.6361 28.5341 60.3615 28.7078 61.091 28.8624C61.0883 28.8469 61.0856 28.8313 61.083 28.8156C61.0614 28.6892 61.0397 28.5621 61.0064 28.4492C60.6565 27.2858 59.8235 27.5592 58.9156 28.3418ZM47.0641 29.6044C47.6336 29.6776 48.1868 29.7703 48.7253 29.8728C49.8968 29.5003 51.0894 29.2367 52.2983 29.1146C49.848 28.2832 47.2838 27.7528 45.7966 28.7502C46.2096 29.0488 46.6323 29.3337 47.0641 29.6044ZM46.7029 33.9633C47.5604 34.305 48.5529 34.3961 49.464 34.1683C48.8929 33.9633 48.3234 33.7339 47.754 33.4589L47.6918 33.4874C47.3611 33.6389 47.0305 33.7903 46.7029 33.9633Z" fill="white"/>
<path d="M22.825 77.45L23.4 82.625L23.975 84.925L25.7 87.8L29.15 91.825L33.75 94.7L38.35 96.425L43.525 97.575L51 98.725H59.625L67.675 97.575L72.85 95.85L77.45 93.55L82.05 90.1L84.925 84.925L85.5 80.325V75.725L84.925 71.7L84.35 68.825L83.2 64.8" stroke="white" stroke-width="2.5"/>
<path d="M66 54.3999V50.2749H43V54.3999H50.3182C53.0405 54.3999 55.3385 56.1283 56.2041 58.5249H43V62.6499H56.2041C55.7749 63.8528 54.9787 64.8952 53.9248 65.6338C52.8709 66.3724 51.611 66.771 50.3182 66.7749H43V71.7538L54.6798 83.2749H60.5929L48.0475 70.8999H50.3182C52.7268 70.8967 55.0607 70.0744 56.9263 68.5715C58.7919 67.0687 60.075 64.9773 60.5595 62.6499H66V58.5249H60.5595C60.2389 57.0238 59.5785 55.6137 58.6275 54.3999H66Z" fill="white"/>
<path d="M95.286 86.5827C93.4014 84.8551 90.4626 84.9681 88.4822 86.5827L73.7247 98.5145C71.9199 99.9838 69.668 100.775 67.3361 100.775H48.442C47.0366 100.775 45.8866 99.6124 45.8866 98.1916C45.8866 96.7707 47.0366 95.6082 48.442 95.6082H60.9476C63.487 95.6082 65.8508 93.8483 66.2661 91.3134C66.7931 88.0843 64.3335 85.2749 61.2191 85.2749H35.665C31.3527 85.2749 27.1842 86.7765 23.8302 89.5213L16.4035 95.6082H7.55541C6.14994 95.6082 5 96.7707 5 98.1916V113.692C5 115.112 6.14994 116.275 7.55541 116.275H64.5412C66.857 116.275 69.109 115.484 70.9297 114.014L95.0784 94.478C97.506 92.5244 97.6977 88.7785 95.286 86.5827Z" fill="white"/>
<path d="M118.778 9.46563H109.953C109.067 6.87557 106.744 5 104 5C101.256 5 98.9333 6.87557 98.0467 9.46563H89.2222C86.9 9.46563 85 11.4752 85 13.9313V49.6563C85 52.1124 86.9 54.122 89.2222 54.122H118.778C121.1 54.122 123 52.1124 123 49.6563V13.9313C123 11.4752 121.1 9.46563 118.778 9.46563ZM104 9.46563C105.161 9.46563 106.111 10.4704 106.111 11.6984C106.111 12.9265 105.161 13.9313 104 13.9313C102.839 13.9313 101.889 12.9265 101.889 11.6984C101.889 10.4704 102.839 9.46563 104 9.46563ZM120.889 51.5366H87.5556V12.051H93.4444V16.2816H114.556V12.051H120.667L120.889 51.5366Z" fill="white"/>
<rect x="96" y="21" width="21" height="2" rx="1" fill="white"/>
<rect x="96" y="28" width="21" height="2" rx="1" fill="white"/>
<rect x="96" y="36" width="21" height="2" rx="1" fill="white"/>
<rect x="96" y="44" width="21" height="2" rx="1" fill="white"/>
<circle cx="92" cy="22" r="2" fill="white"/>
<circle cx="92" cy="29" r="2" fill="white"/>
<circle cx="92" cy="37" r="2" fill="white"/>
<circle cx="92" cy="45" r="2" fill="white"/>
</svg>
